<?xml version="1.0" encoding="UTF-8" standalone="no"?>
<!DOCTYPE svg PUBLIC "-//W3C//DTD SVG 1.1//EN" "http://www.w3.org/Graphics/SVG/1.1/DTD/svg11.dtd">
<!-- Generated by Microsoft Visio, SVG Export i2connect_arch.svg interaction -->
<svg xmlns="http://www.w3.org/2000/svg" xmlns:xlink="http://www.w3.org/1999/xlink" xmlns:ev="http://www.w3.org/2001/xml-events"
		width="8.00694in" height="5.63194in" viewBox="0 0 576.5 405.5" xml:space="preserve" color-interpolation-filters="sRGB"
		class="st15">
	<style type="text/css">
	<![CDATA[
		.st1 {fill:url(#grad0-4);stroke:#000000;stroke-linecap:round;stroke-linejoin:round;stroke-width:0.5}
		.st2 {fill:#000000;font-family:Inter;font-size:0.75em}
		.st3 {fill:url(#grad0-9);stroke:#000000;stroke-linecap:round;stroke-linejoin:round;stroke-width:0.5}
		.st4 {fill:url(#grad0-18);stroke:#000000;stroke-linecap:round;stroke-linejoin:round;stroke-width:0.5}
		.st5 {font-size:1em}
		.st6 {fill:url(#grad0-9);stroke:#000000;stroke-dasharray:1.5,1.5;stroke-linecap:round;stroke-linejoin:round;stroke-width:0.5}
		.st7 {fill:url(#grad0-41);stroke:#000000;stroke-linecap:round;stroke-linejoin:round;stroke-width:0.5}
		.st8 {marker-start:url(#mrkr4-55);stroke:#000000;stroke-linecap:round;stroke-linejoin:round;stroke-width:0.5}
		.st9 {fill:#000000;fill-opacity:1;stroke:#000000;stroke-opacity:1;stroke-width:0.16556291390728}
		.st10 {marker-start:url(#mrkr4-55);stroke:#000000;stroke-dasharray:1.5,1.5;stroke-linecap:round;stroke-linejoin:round;stroke-width:0.5}
		.st11 {marker-end:url(#mrkr4-80);stroke:#000000;stroke-linecap:round;stroke-linejoin:round;stroke-width:0.5}
		.st12 {marker-end:url(#mrkr4-80);stroke:#000000;stroke-dasharray:1.5,1.5;stroke-linecap:round;stroke-linejoin:round;stroke-width:0.5}
		.st13 {fill:#262626;stroke:none;stroke-linecap:round;stroke-linejoin:round;stroke-width:0.5}
		.st14 {fill:#ffffff;font-family:Inter;font-size:0.75em;font-weight:bold}
		.st15 {fill:none;fill-rule:evenodd;font-size:12px;overflow:visible;stroke-linecap:square;stroke-miterlimit:3}
	]]>
	</style>

	<defs id="Patterns_And_Gradients">
		<linearGradient id="grad0-4" x1="0" y1="0" x2="1" y2="0" gradientTransform="rotate(270 0.5 0.5)">
			<stop offset="0" stop-color="#f6d5b9" stop-opacity="1"/>
			<stop offset="1" stop-color="#ffffff" stop-opacity="1"/>
		</linearGradient>
		<linearGradient id="grad0-9" x1="0" y1="0" x2="1" y2="0" gradientTransform="rotate(270 0.5 0.5)">
			<stop offset="0" stop-color="#e0e6cd" stop-opacity="1"/>
			<stop offset="1" stop-color="#ffffff" stop-opacity="1"/>
		</linearGradient>
		<linearGradient id="grad0-18" x1="0" y1="0" x2="1" y2="0" gradientTransform="rotate(270 0.5 0.5)">
			<stop offset="0" stop-color="#d8d8d8" stop-opacity="1"/>
			<stop offset="1" stop-color="#ffffff" stop-opacity="1"/>
		</linearGradient>
		<linearGradient id="grad0-41" x1="0" y1="0" x2="1" y2="0" gradientTransform="rotate(270 0.5 0.5)">
			<stop offset="0" stop-color="#c3d7e8" stop-opacity="1"/>
			<stop offset="1" stop-color="#ffffff" stop-opacity="1"/>
		</linearGradient>
		<linearGradient id="grad0-52" x1="0" y1="0" x2="1" y2="0" gradientTransform="rotate(270 0.5 0.5)">
			<stop offset="0" stop-color="#f0f0f0" stop-opacity="1"/>
			<stop offset="1" stop-color="#ffffff" stop-opacity="1"/>
		</linearGradient>
	</defs>
	<defs id="Markers">
		<g id="lend4">
			<path d="M 2 1 L 0 0 L 2 -1 L 2 1 " style="stroke:none"/>
		</g>
		<marker id="mrkr4-55" class="st9" refX="11.36" orient="auto" markerUnits="strokeWidth" overflow="visible">
			<use xlink:href="#lend4" transform="scale(6.04) "/>
		</marker>
		<marker id="mrkr4-80" class="st9" refX="-12.08" orient="auto" markerUnits="strokeWidth" overflow="visible">
			<use xlink:href="#lend4" transform="scale(-6.04,-6.04) "/>
		</marker>
	</defs>
	<g>
		<title>interaction</title>
		<g id="shape3-1" transform="translate(306.25,-18.25)">
			<title>Rectangle.3</title>
			<desc>Web server</desc>
			<rect x="0" y="63.5" width="144" height="342" class="st1"/>
			<text x="47.6" y="398.8" class="st2">Web server</text>		</g>
		<g id="shape5-6" transform="translate(324.25,-45.25)">
			<title>Rectangle.5</title>
			<desc>Connector</desc>
			<rect x="0" y="180.5" width="108" height="225" class="st3"/>
			<text x="31.65" y="398.8" class="st2">Connector</text>		</g>
		<g id="shape7-11" transform="translate(342.25,-72.25)">
			<title>Rectangle.7</title>
			<desc>Service</desc>
			<rect x="0" y="270.5" width="72" height="135" class="st3"/>
			<text x="20.13" y="282.6" class="st2">Service</text>		</g>
		<g id="shape1-15" transform="translate(18.25,-72.25)">
			<title>Rectangle</title>
			<desc>Analyst&#39;s Notebook</desc>
			<rect x="0" y="243.5" width="72" height="162" class="st4"/>
			<text x="16.87" y="321.8" class="st2">Analyst&#39;s <tspan x="15.06" dy="1.2em" class="st5">Notebook</tspan></text>		</g>
		<g id="shape2-21" transform="translate(126.25,-27.25)">
			<title>Rectangle.2</title>
			<desc>Liberty server</desc>
			<rect x="0" y="45.5" width="144" height="360" class="st4"/>
			<text x="42.46" y="398.8" class="st2">Liberty server</text>		</g>
		<g id="shape4-25" transform="translate(486.25,-90.25)">
			<title>Rectangle.4</title>
			<desc>External source</desc>
			<rect x="0" y="360.5" width="72" height="45" class="st4"/>
			<text x="18.71" y="380.3" class="st2">External <tspan x="21.54" dy="1.2em" class="st5">source</tspan></text>		</g>
		<g id="shape8-30" transform="translate(342.25,-225.25)">
			<title>Rectangle.8</title>
			<desc>configuration</desc>
			<rect x="0" y="378.5" width="72" height="27" class="st3"/>
			<text x="7.89" y="394.7" class="st2">configuration</text>		</g>
		<g id="shape9-34" transform="translate(360.25,-135.25)">
			<title>Rectangle.9</title>
			<desc>validate</desc>
			<path d="M0 405.5 L36 405.5 L36 360.5 L0 360.5 L0 405.5 Z" class="st6"/>
			<text x="1.23" y="385.7" class="st2">validate</text>		</g>
		<g id="shape14-38" transform="translate(144.25,-54.25)">
			<title>Rectangle.14</title>
			<desc>i2 Analyze</desc>
			<rect x="0" y="90.5" width="108" height="315" class="st7"/>
			<text x="32.1" y="398.8" class="st2">i2 Analyze</text>		</g>
		<g id="shape13-43" transform="translate(162.25,-81.25)">
			<title>Rectangle.13</title>
			<desc>i2 Connect gateway</desc>
			<rect x="0" y="135.5" width="72" height="270" class="st7"/>
			<text x="12.95" y="147.6" class="st2">i2 Connect <tspan x="17.76" dy="1.2em" class="st5">gateway</tspan></text>		</g>
		<g id="shape15-48" transform="translate(342.25,-234.25)">
			<title>Dynamic connector</title>
			<path d="M-5.68 396.5 L-6.04 396.5 L-108 396.5" class="st8"/>
		</g>
		<g id="shape16-56" transform="translate(144.25,-162.25)">
			<title>Dynamic connector.16</title>
			<path d="M-5.68 396.5 L-6.04 396.5 L-54 396.5" class="st8"/>
		</g>
		<g id="shape17-62" transform="translate(162.25,-162.25)">
			<title>Dynamic connector.17</title>
			<path d="M-5.68 396.5 L-6.04 396.5 L-18 396.5" class="st8"/>
		</g>
		<g id="shape18-68" transform="translate(360.25,-153.25)">
			<title>Dynamic connector.18</title>
			<path d="M-5.68 396.5 L-6.04 396.5 L-126 396.5" class="st10"/>
		</g>
		<g id="shape20-74" transform="translate(342.25,-225.25)">
			<title>Dynamic connector.20</title>
			<path d="M0 396.5 L-101.96 396.5" class="st11"/>
		</g>
		<g id="shape21-81" transform="translate(396.25,-99.25)">
			<title>Dynamic connector.21</title>
			<path d="M5.68 396.5 L6.04 396.5 L90 396.5" class="st8"/>
		</g>
		<g id="shape22-87" transform="translate(360.25,-144.25)">
			<title>Dynamic connector.22</title>
			<path d="M0 396.5 L-119.96 396.5" class="st12"/>
		</g>
		<g id="shape6-93" transform="translate(360.25,-90.25)">
			<title>Rectangle.6</title>
			<desc>acquire</desc>
			<rect x="0" y="360.5" width="36" height="45" class="st3"/>
			<text x="2.23" y="385.7" class="st2">acquire</text>		</g>
		<g id="shape23-97" transform="translate(360.25,-117.25)">
			<title>Dynamic connector.23</title>
			<path d="M-5.68 396.5 L-6.04 396.5 L-126 396.5" class="st8"/>
		</g>
		<g id="shape24-103" transform="translate(360.25,-90.25)">
			<title>Dynamic connector.24</title>
			<path d="M0 396.5 L-119.96 396.5" class="st11"/>
		</g>
		<g id="shape25-109" transform="translate(162.25,-81.25)">
			<title>Dynamic connector.25</title>
			<path d="M0 396.5 L-11.96 396.5" class="st11"/>
		</g>
		<g id="shape26-115" transform="translate(144.25,-81.25)">
			<title>Dynamic connector.26</title>
			<path d="M0 396.5 L-47.96 396.5" class="st11"/>
		</g>
		<g id="shape10-121" transform="translate(486.25,-108.25)">
			<title>Dynamic connector.10</title>
			<path d="M-5.68 396.5 L-6.04 396.5 L-90 396.5" class="st8"/>
		</g>
		<g id="shape27-127" transform="translate(144.25,-207.25)">
			<title>Dynamic connector.27</title>
			<path d="M-5.68 396.5 L-6.04 396.5 L-54 396.5" class="st8"/>
		</g>
		<g id="shape28-133" transform="translate(162.25,-207.25)">
			<title>Dynamic connector.28</title>
			<path d="M0 402.18 L0 402.54 L0 410 L-18 410 L-18 396.5" class="st8"/>
		</g>
		<g id="shape29-139" transform="translate(162.25,-198.25)">
			<title>Dynamic connector.29</title>
			<path d="M0 396.5 L-11.96 396.5" class="st11"/>
		</g>
		<g id="shape30-145" transform="translate(144.25,-198.25)">
			<title>Dynamic connector.30</title>
			<path d="M0 396.5 L-47.96 396.5" class="st11"/>
		</g>
		<g id="shape31-151" transform="translate(279.25,-261.25)">
			<title>Junction number</title>
			<desc>1</desc>
			<path d="M0 396.5 A9 9 0 1 1 18 396.5 A9 9 0 0 1 0 396.5 Z" class="st13"/>
			<text x="6.8" y="399.2" class="st14">1</text>		</g>
		<g id="shape32-154" transform="translate(99.25,-220.75)">
			<title>Junction number.32</title>
			<desc>2</desc>
			<path d="M0 396.5 A9 9 0 1 1 18 396.5 A9 9 0 0 1 0 396.5 Z" class="st13"/>
			<text x="6.16" y="399.2" class="st14">2</text>		</g>
		<g id="shape33-157" transform="translate(99.25,-175.75)">
			<title>Junction number.33</title>
			<desc>3</desc>
			<path d="M0 396.5 A9 9 0 1 1 18 396.5 A9 9 0 0 1 0 396.5 Z" class="st13"/>
			<text x="6.03" y="399.2" class="st14">3</text>		</g>
		<g id="shape34-160" transform="translate(324.25,-288.25)">
			<title>Rectangle.34</title>
			<desc>charting scheme</desc>
			<path d="M0 405.5 L108 405.5 L108 378.5 L0 378.5 L0 405.5 Z" class="st6"/>
			<text x="18.59" y="394.7" class="st2">charting scheme</text>		</g>
		<g id="shape35-164" transform="translate(324.25,-315.25)">
			<title>Rectangle.35</title>
			<desc>schema</desc>
			<path d="M0 405.5 L108 405.5 L108 378.5 L0 378.5 L0 405.5 Z" class="st6"/>
			<text x="37.41" y="394.7" class="st2">schema</text>		</g>
		<g id="shape36-168" transform="translate(324.25,-297.25)">
			<title>Dynamic connector.36</title>
			<path d="M-5.68 396.5 L-6.04 396.5 L-90 396.5" class="st10"/>
		</g>
		<g id="shape37-174" transform="translate(324.25,-288.25)">
			<title>Dynamic connector.37</title>
			<path d="M0 396.5 L-83.96 396.5" class="st12"/>
		</g>
		<g id="shape38-180" transform="translate(324.25,-324.25)">
			<title>Dynamic connector.38</title>
			<path d="M-5.68 396.5 L-6.04 396.5 L-90 396.5" class="st10"/>
		</g>
		<g id="shape39-186" transform="translate(324.25,-315.25)">
			<title>Dynamic connector.39</title>
			<path d="M0 396.5 L-83.96 396.5" class="st12"/>
		</g>
		<g id="shape40-192" transform="translate(180.25,-225.25)">
			<title>Rectangle.40</title>
			<desc>reload</desc>
			<rect x="0" y="378.5" width="36" height="27" class="st7"/>
			<text x="4.62" y="394.7" class="st2">reload</text>		</g>
		<g id="shape41-196" transform="translate(234.25,-234.25)">
			<title>Dynamic connector.41</title>
			<path d="M-5.68 396.5 L-6.04 396.5 L-18 396.5" class="st8"/>
		</g>
	</g>
</svg>
